<svg xmlns="http://www.w3.org/2000/svg" viewBox="0 0 24 24" fill="none" stroke="#093547" stroke-width="1.5" stroke-linecap="round" stroke-linejoin="round"><path d="M6.5 3.5h11a1 1 0 0 1 1 1v8.8a4 4 0 0 1-.7 2.3L14.5 20a1 1 0 0 1-.8.5h-3.4a1 1 0 0 1-.8-.5l-3.3-4.4a4 4 0 0 1-.7-2.3V4.5a1 1 0 0 1 1-1z"/><path d="M6.5 8.5h11"/><circle cx="9" cy="6" r=".5" fill="#093547" stroke="none"/><circle cx="12" cy="6" r=".5" fill="#093547" stroke="none"/><circle cx="15" cy="6" r=".5" fill="#093547" stroke="none"/></svg>
