<?xml version="1.0" encoding="UTF-8" standalone="no"?>
<!-- Created with Inkscape (http://www.inkscape.org/) -->

<svg
   version="1.1"
   id="svg1"
   width="672.80078"
   height="454.21802"
   viewBox="0 0 672.80078 454.21802"
   xmlns="http://www.w3.org/2000/svg"
   xmlns:svg="http://www.w3.org/2000/svg">
  <style
     id="style1">.CountyLogo { fill: currentColor; }
</style>
  <defs
     id="defs1" />
  <g
     id="g1"
     transform="translate(-71.839844,-37.439453)">
    <path
       id="path54"
       class="CountyLogo"
       style=""
       d="m 573.80859,37.439453 c -5.23492,0 -6.58552,0.469115 -7.91992,2.746094 l -0.82226,1.404297 0.10742,109.044926 c 0.10084,100.73862 0.14946,109.11899 0.63867,110.00585 0.59666,1.08169 1.99973,2.46202 3.04688,3 0.49388,0.25373 6.34312,0.35938 19.93554,0.35938 15.93675,0 19.38569,-0.0772 20.10156,-0.45117 1.16022,-0.60613 2.50688,-2.06636 2.92383,-3.16992 0.23411,-0.61963 0.35341,-15.55332 0.38281,-47.83985 0.0236,-25.81654 0.13179,-50.85559 0.24024,-55.64258 l 0.19726,-8.70312 58.87891,77.73047 c 55.01341,72.62701 58.97487,77.77355 60.32031,78.37305 1.78955,0.79737 7.6991,0.93805 9.3711,0.22265 1.24527,-0.53282 2.62472,-1.9538 3.08789,-3.17969 0.23828,-0.63065 0.34179,-36.98521 0.34179,-121.21093 10e-6,-107.543629 -0.0522,-120.435271 -0.49218,-121.488285 -0.63514,-1.520096 -1.30892,-2.245682 -2.77539,-2.994141 -1.1258,-0.574578 -2.17643,-0.607422 -20.29883,-0.607422 -18.74962,0 -19.13875,0.01385 -20.49805,0.671876 -0.92225,0.446452 -1.64142,1.115219 -2.15234,2 l -0.76758,1.328124 -0.23047,63.921878 c -0.12693,35.156 -0.31932,63.91039 -0.42773,63.90039 -0.10841,-0.01 -26.89662,-33.63272 -59.5293,-74.71875 L 578.13477,37.439453 Z m -347.56836,0.01367 c -22.01314,0 -21.08531,-0.07727 -23.52929,1.986328 -0.53304,0.450072 -19.10834,23.366141 -41.2793,50.923828 l -40.3125,50.103521 -0.1582,-40.07227 c -0.11922,-29.859447 -0.25699,-40.290711 -0.53906,-40.919923 -0.62892,-1.402877 -2.41895,-3.219899 -3.7793,-3.83789 -1.19423,-0.542527 -2.59857,-0.583344 -20.365236,-0.589844 l -19.083985,-0.0078 -1.710937,0.894532 c -1.24613,0.650986 -1.975211,1.318772 -2.677734,2.455078 L 71.839844,59.94923 V 180 300.05078 l 0.964844,1.56055 c 0.702523,1.13631 1.431604,1.80409 2.677734,2.45508 l 1.710937,0.89453 h 19.013672 c 15.229019,0 19.218209,-0.086 20.042969,-0.43164 1.52241,-0.63797 3.04525,-2.03656 3.84375,-3.5293 l 0.70703,-1.32031 0.16016,-65.74805 0.1582,-65.74805 34.06641,46.38868 c 18.7358,25.51346 34.52631,46.8325 35.08984,47.37695 1.82322,1.76154 1.85036,1.76469 26.23242,1.66406 l 22.42774,-0.0937 1.28906,-0.89258 c 2.55545,-1.77117 3.76781,-5.72677 2.59766,-8.4707 -0.23257,-0.54537 -17.55796,-23.32227 -38.50196,-50.61523 -20.944,-27.29297 -38.11731,-49.73346 -38.16211,-49.86719 -0.0448,-0.13374 18.87026,-23.85725 42.03321,-52.71875 23.16295,-28.861505 42.38482,-53.051861 42.71484,-53.755861 1.58672,-3.384853 0.0388,-7.5664 -3.38672,-9.152344 -1.20275,-0.556851 -2.4864,-0.59375 -21.2793,-0.59375 z m 93.59961,26.291016 -59.19922,0.0957 -1.18359,0.736328 c -0.65113,0.404872 -1.517,1.268794 -1.92187,1.919922 l -0.73438,1.183594 V 164 c 0,95.75109 0.002,96.32629 0.63867,97.38672 0.352,0.5867 1.21592,1.41349 1.91993,1.83789 l 1.28124,0.77148 60.95899,-0.0781 60.96094,-0.0781 1.07617,-0.76757 c 0.59251,-0.42259 1.34621,-1.35867 1.67383,-2.08008 0.55621,-1.2247 0.59456,-2.41792 0.60156,-17.98242 l 0.008,-16.66797 -0.73633,-1.39453 c -0.50365,-0.95243 -1.17843,-1.62721 -2.13086,-2.13086 l -1.39257,-0.73633 H 341.54883 301.43945 V 202.7207 183.35938 h 33.13282 c 32.3748,-10e-6 33.16111,-0.0145 34.37304,-0.63282 0.68217,-0.34802 1.57746,-1.10371 1.98828,-1.67968 l 0.7461,-1.04688 0.0879,-17.23828 0.0879,-17.23828 -0.77539,-1.32422 c -0.43707,-0.7458 -1.33533,-1.63976 -2.05274,-2.04297 l -1.27539,-0.7168 H 334.5957 301.43945 v -17.75976 -17.75977 l 39.75977,-0.002 c 25.10638,-10e-4 40.17835,-0.11745 40.89453,-0.31641 1.28666,-0.35744 2.98123,-1.96298 3.48633,-3.30273 0.22352,-0.59285 0.33984,-6.558452 0.33984,-17.451174 0,-16.528755 -0.002,-16.553287 -0.7207,-17.976562 -0.90545,-1.792312 -2.36263,-2.772966 -4.4961,-3.025391 -0.91512,-0.108309 -28.30328,-0.154282 -60.86328,-0.101562 z m 133.43946,0.01563 c -24.464,-0.06798 -45.37498,-0.03148 -46.46875,0.08203 -2.46729,0.256066 -3.85083,1.127562 -4.8125,3.03125 l -0.72071,1.429687 0.082,96.031244 0.0801,96.03321 0.84766,1.28125 c 0.46626,0.70457 1.33018,1.51802 1.91992,1.80859 0.95836,0.47218 3.02135,0.52816 19.42383,0.53516 20.42929,0.008 19.70832,0.0822 21.42773,-2.17188 l 0.86133,-1.13086 0.16016,-37.46484 0.16015,-37.46484 9.83594,-0.084 9.83594,-0.0859 19.19141,38.375 c 16.23282,32.45812 19.35395,38.49008 20.24414,39.125 l 1.05273,0.75 20.95899,0.0781 20.96093,0.0781 1.2461,-0.71679 c 1.80024,-1.03753 2.5021,-2.50095 2.34179,-4.87891 -0.12399,-1.83914 -0.96076,-3.46158 -19.87695,-38.51562 -10.86133,-20.1274 -19.70234,-36.62406 -19.64844,-36.66016 0.0539,-0.0361 2.33957,-1.16703 5.08008,-2.51172 8.38966,-4.11658 14.15102,-8.29634 20.45703,-14.84375 8.52606,-8.85244 13.68357,-18.85016 15.68164,-30.39844 5.38489,-31.123 -14.87614,-61.805511 -46.02148,-69.695307 -7.71159,-1.953509 -5.74125,-1.880687 -54.30078,-2.015625 z m -7.03907,41.041011 h 22.56055 c 20.89656,0 22.72979,0.042 24.86719,0.58984 6.10463,1.5646 11.39493,5.87929 14.18945,11.57032 1.67274,3.40653 2.22266,5.74758 2.22266,9.45508 0,10.19925 -6.41803,18.95335 -16.32031,22.25976 -1.62933,0.54404 -3.45885,0.59465 -24.72266,0.68945 l -22.96094,0.10157 0.082,-22.33203 z m -9.59961,181.86914 -2.51171,0.10938 c -2.28664,0.0988 -2.57896,0.18776 -3.2793,1.00195 l -0.76953,0.89453 v 51.8457 51.84766 l 0.93554,0.93555 c 0.9165,0.91648 1.00415,0.93554 4.33594,0.93554 3.52876,0 5.00427,-0.39733 5.41016,-1.45507 0.10938,-0.28491 0.19922,-19.22619 0.19922,-42.0918 0,-22.8656 0.10628,-41.56564 0.23828,-41.55664 0.132,0.009 15.84177,19.53781 34.91016,43.39648 l 34.66992,43.37891 1.93945,-0.14063 c 1.62042,-0.11721 2.06108,-0.28314 2.68945,-1.01367 l 0.75196,-0.87304 v -51.84766 -51.8457 l -0.93555,-0.93555 c -0.91666,-0.91668 -1.00433,-0.93555 -4.3418,-0.93555 -3.39731,0 -4.42152,0.24666 -5.19336,1.25196 -0.3016,0.39285 -0.39043,9.75806 -0.39843,41.38867 -0.006,22.484 -0.11996,40.87033 -0.25196,40.86133 -0.132,-0.009 -15.57436,-19.17168 -34.31836,-42.58399 z m -250.08203,0.13281 c -13.76554,0.0143 -26.99432,5.14465 -37.3457,14.79493 -19.42965,18.11369 -22.80492,47.9971 -7.93359,70.24218 8.768,13.1155 23.89636,22.11627 39.74218,23.64258 14.62768,1.40898 28.79942,-2.89223 39.58985,-12.01367 2.7797,-2.34976 3.51758,-3.34224 3.51758,-4.74219 0,-0.95612 -0.28329,-1.36582 -2.03907,-2.95898 -2.8135,-2.55291 -3.85896,-3.28711 -4.67578,-3.28711 -0.38576,0 -1.54606,0.58083 -2.57812,1.29101 -1.03205,0.71018 -3.21053,2.20823 -4.8418,3.32813 -8.31824,5.71068 -15.25334,7.77036 -25.0332,7.43555 -7.03009,-0.24068 -11.49949,-1.40612 -17.73438,-4.62305 -11.16143,-5.75882 -19.27191,-16.70526 -22.16015,-29.90625 -0.82806,-3.78474 -0.82142,-13.69634 0.0117,-17.50977 3.83975,-17.57523 16.38955,-30.40221 33.24805,-33.98242 4.26082,-0.90487 10.94644,-0.97644 15.0625,-0.16211 7.52564,1.48889 14.75882,4.93193 21.04688,10.01758 3.02217,2.44426 3.34395,2.38972 6.78711,-1.12891 C 223.77531,304.63164 224,304.29897 224,303.125 c 0,-1.49442 -0.51622,-2.10056 -4.16992,-4.88867 -6.49417,-4.95566 -12.62182,-8.02364 -19.41406,-9.72071 -4.62093,-1.15455 -9.26891,-1.71764 -13.85743,-1.71289 z m 93.42969,0.0137 c -7.89155,0.0804 -15.80926,1.88225 -23.1875,5.48437 -8.82553,4.30869 -15.78846,10.40992 -21.32226,18.68555 -13.24799,19.81196 -11.97904,46.49046 3.09375,65.01367 8.89011,10.92521 22.42475,18.11968 36.67187,19.49414 28.66875,2.76574 54.36919,-16.93515 59.0332,-45.25391 0.85464,-5.18913 0.78577,-13.49073 -0.15429,-18.56054 -2.24747,-12.12086 -8.61434,-23.48885 -17.51367,-31.26758 -10.38856,-9.08043 -23.46852,-13.72965 -36.6211,-13.5957 z m 67.41797,1.5039 c -3.48838,0 -3.72793,0.0421 -4.66211,0.82813 l -0.98437,0.82812 0.002,34.77149 c 10e-4,29.00126 0.0779,35.25208 0.46875,37.66211 2.98839,18.42465 16.1528,31.0274 34.57031,33.09961 3.20298,0.36038 9.27569,0.1356 12.76367,-0.47266 5.39445,-0.94071 10.80591,-3.13942 15.47071,-6.28711 7.91164,-5.33857 13.39787,-13.78587 15.86523,-24.42969 0.65176,-2.81158 0.67055,-3.72666 0.77734,-38.49219 l 0.10938,-35.61132 -0.94922,-0.94922 c -0.94606,-0.94644 -0.95782,-0.94727 -4.79492,-0.94727 -3.60486,0 -3.90275,0.0479 -4.74414,0.77149 l -0.89844,0.77343 -0.16601,35.30665 -0.16407,35.30859 -0.8457,3.07812 c -3.18923,11.6098 -10.99965,19.01945 -22.08594,20.95508 -3.91032,0.68273 -9.93101,0.45447 -13.52148,-0.51172 -5.17781,-1.39335 -9.97429,-4.43459 -13.40821,-8.5039 -2.24142,-2.65616 -4.95908,-8.06452 -6.01953,-11.97852 l -0.73633,-2.71875 -0.16601,-35.20117 c -0.1754,-37.0923 -0.13677,-36.17338 -1.59375,-36.95313 -0.33639,-0.18003 -2.26504,-0.32617 -4.28711,-0.32617 z m 177.36523,0 -0.75976,0.75977 c -1.52015,1.52015 -1.54062,6.97648 -0.0312,8.48633 l 0.83398,0.83398 13.75196,0.0898 13.7539,0.0899 v 47.00195 47.00195 l 0.98438,0.82813 c 0.9283,0.78114 1.18538,0.82812 4.49609,0.82812 4.22116,0 5.20679,-0.37295 5.70313,-2.16015 0.22369,-0.8055 0.33298,-16.36137 0.33398,-47.35938 l 0.002,-46.16015 h 13.15235 c 11.32657,0 13.29865,-0.0702 14.21679,-0.50586 1.34455,-0.63803 1.75196,-1.76036 1.75196,-4.83789 0,-2.52625 -0.50949,-3.99135 -1.58399,-4.56641 -0.41084,-0.21987 -11.59291,-0.33008 -33.61133,-0.33008 z m 75.5,0 -0.93554,0.93555 c -1.08334,1.08334 -1.17636,2.02682 -0.33399,3.4082 0.32988,0.54096 8.60898,12.09697 18.39844,25.67969 l 17.79883,24.69531 0.002,23.91992 c 10e-4,15.47374 0.1201,24.34118 0.33399,25.11133 0.18186,0.65481 0.64497,1.4105 1.02929,1.67969 0.82799,0.57995 7.87108,0.70684 8.89258,0.16016 1.60817,-0.86068 1.58203,-0.4258 1.58203,-26.55469 V 343 l 18.29297,-25.01953 c 10.0602,-13.76103 18.4264,-25.19687 18.5918,-25.41211 0.1654,-0.21524 0.30078,-0.92919 0.30078,-1.58789 0,-0.89939 -0.21141,-1.38073 -0.84961,-1.92969 -0.79366,-0.6827 -1.13501,-0.73047 -5.13867,-0.73047 -2.48225,0 -4.61691,0.14994 -5.07227,0.35742 -0.48396,0.22051 -6.66251,8.49911 -16.06445,21.52149 -8.4031,11.63891 -15.37958,21.27702 -15.50195,21.41797 -0.12238,0.14095 -7.10298,-9.26118 -15.51368,-20.89258 -8.4107,-11.63141 -15.6525,-21.42985 -16.09179,-21.77539 -0.70698,-0.55616 -1.31064,-0.62891 -5.25977,-0.62891 z m -319.63086,9.16797 c 11.72952,0.0174 22.17215,4.36594 30.58594,12.74024 6.41952,6.3894 10.45808,13.79283 12.32422,22.58593 0.92883,4.37654 1.01574,12.17304 0.18164,16.39258 -1.79983,9.10507 -6.10377,17.00619 -12.80078,23.50391 -6.35457,6.16546 -14.31459,10.29511 -22.61133,11.73047 -9.48669,1.64123 -18.64047,0.33669 -26.96679,-3.84375 -12.63039,-6.34142 -21.12268,-17.59107 -23.76758,-31.47852 -0.75575,-3.96805 -0.78091,-11.20905 -0.0527,-15.21875 1.55562,-8.56617 5.61338,-16.52849 11.66407,-22.88672 3.6673,-3.85371 7.42328,-6.62946 12.08203,-8.92578 6.88719,-3.39473 12.01073,-4.61051 19.36132,-4.59961 z m 164.36524,117.76758 c -1.01275,-0.0494 -2.10292,0.27212 -2.50391,0.89062 -0.47608,0.73433 -28.89017,64.69449 -31.69336,71.3418 -0.88436,2.09711 -0.90714,2.31684 -0.34179,3.17969 0.53486,0.81624 0.89483,0.92578 3.02929,0.92578 1.83453,0 2.61188,-0.17339 3.19727,-0.71875 0.42536,-0.39628 2.58348,-4.90834 4.79492,-10.02539 l 4.02149,-9.30273 19.02539,0.0996 19.02539,0.0977 4.125,9.39648 c 2.26798,5.1674 4.4493,9.63257 4.84765,9.92383 0.85038,0.62182 4.53524,0.7078 5.61328,0.13086 0.45346,-0.24269 0.74414,-0.80484 0.74414,-1.43554 10e-6,-1.25629 -31.46361,-73.31472 -32.31054,-73.99805 -0.3865,-0.31183 -0.96657,-0.47621 -1.57422,-0.50586 z m -180.98438,1.46094 c -2.41508,-0.0386 -2.12695,2.55565 -2.12695,37.35742 0,35.46414 0.01,35.99015 0.76953,36.75 1.12096,1.12094 4.43735,1.0804 5.66016,-0.0684 l 0.89258,-0.83789 v -35.69141 c 0,-31.68035 -0.067,-35.78849 -0.59961,-36.54883 -0.50878,-0.7264 -0.95857,-0.85742 -2.95703,-0.85742 -0.65158,0 -1.19144,-0.0964 -1.63868,-0.10351 z m -50.61718,0.01 c -2.26142,-0.006 -2.00196,2.69523 -2.00196,37.51953 v 36.14844 l 0.85743,0.59961 c 0.74721,0.5234 3.28492,0.59961 19.86718,0.59961 h 19.00977 l 0.99219,-0.99219 c 0.86225,-0.86223 0.9678,-1.22806 0.79297,-2.77929 -0.37217,-3.30184 0.41113,-3.16602 -18.24415,-3.16602 h -16.33789 v -33.21289 c 0,-37.86529 0.31817,-34.62305 -3.40234,-34.62305 -0.60929,0 -1.11442,-0.0926 -1.5332,-0.0937 z m 90.5664,0.0937 c -12.19516,0 -13.76456,0.0703 -14.39258,0.63867 -0.67326,0.6093 -0.70507,2.24977 -0.70507,36.61524 0,35.89075 0.003,35.97999 0.80078,36.77734 0.78609,0.78608 1.03872,0.79744 15.32031,0.64844 12.23106,-0.12763 14.88617,-0.25469 16.83398,-0.81055 10.2946,-2.93783 16.28528,-10.23403 16.35938,-19.92383 0.0554,-7.24134 -3.55549,-13.551 -9.48828,-16.58398 l -1.9336,-0.98828 2.14258,-1.70898 c 2.526,-2.01437 4.72567,-5.02348 5.8711,-8.0293 1.02515,-2.69018 1.39379,-8.21898 0.7539,-11.30078 -1.4719,-7.08894 -7.07672,-12.57181 -14.89843,-14.57227 -2.69029,-0.68799 -4.29526,-0.76172 -16.66407,-0.76172 z m 50.47071,0 -0.59961,0.85742 c -0.53251,0.76032 -0.60157,4.86268 -0.60157,36.49415 v 35.63867 l 0.83789,0.89257 c 1.21772,1.2962 4.21812,1.26626 5.53907,-0.0547 l 0.94726,-0.94532 v -13.1289 -13.12891 l 10.4961,0.10352 10.49609,0.10156 7.5293,13.60547 c 4.14159,7.48274 7.78758,13.76827 8.10156,13.9668 0.31398,0.19853 1.65555,0.36123 2.98047,0.36523 2.54417,0.006 3.94922,-0.77048 3.94922,-2.18164 0,-0.35517 -3.29451,-6.49913 -7.32227,-13.6543 -4.02775,-7.15515 -7.32422,-13.09218 -7.32422,-13.19336 1.4e-4,-8.5e-4 0.002,-0.005 0.002,-0.006 0.0492,-0.12116 1.11433,-0.70388 2.4082,-1.31445 12.23411,-5.77309 17.22448,-19.68754 11.36133,-31.67773 -1.60817,-3.28874 -6.4673,-8.23611 -9.79492,-9.97266 -4.94035,-2.57817 -6.55606,-2.76758 -23.67188,-2.76758 z m 246.8125,0.004 c -1.46136,0.004 -2.9468,0.16474 -3.34766,0.47851 -0.33852,0.26499 -5.76339,7.39453 -12.05664,15.84375 -6.97894,9.36982 -11.58023,15.22447 -11.79688,15.00782 -0.19536,-0.19535 -5.43482,-7.2822 -11.64257,-15.74805 l -11.28711,-15.39258 -3.00586,-0.11328 c -3.30096,-0.12437 -4.08789,0.21094 -4.08789,1.74219 0,0.65271 4.22478,6.67028 13.29492,18.93554 l 13.29492,17.97852 0.008,17.15234 c 0.005,9.43342 0.13528,17.3402 0.29102,17.57032 0.15575,0.2301 0.63072,0.61504 1.05469,0.85547 1.42473,0.80791 3.98276,0.5602 5.02929,-0.48633 l 0.94532,-0.94532 v -17.16601 -17.16406 l 13.48632,-17.83008 c 13.52177,-17.87731 14.262,-19.02902 13.03125,-20.25977 -0.31168,-0.31167 -1.74958,-0.46328 -3.21093,-0.45898 z m -96.50782,0.002 c -13.60251,-0.005 -15.26938,0.0618 -15.90039,0.63281 -0.67326,0.60929 -0.70312,2.25065 -0.70312,36.60157 v 35.96289 l 0.8418,0.78515 c 1.26908,1.18234 4.27974,1.09526 5.53515,-0.16015 l 0.94531,-0.94532 v -13.1289 -13.12891 l 10.47461,0.10352 10.47657,0.10156 7.45898,13.49023 c 4.10332,7.41955 7.74835,13.70767 8.09961,13.97266 0.35398,0.26703 1.72258,0.48047 3.07031,0.48047 2.55553,0 3.97461,-0.77338 3.97461,-2.16797 0,-0.34462 -3.29646,-6.47428 -7.32422,-13.62305 -4.02775,-7.14878 -7.32226,-13.09473 -7.32226,-13.21289 0,-9.2e-4 -1.4e-4,-0.003 0,-0.004 0.0331,-0.13127 1.10398,-0.73212 2.4082,-1.34766 12.2766,-5.79405 17.23409,-19.8284 11.23047,-31.79492 -1.94289,-3.8726 -6.32698,-8.18775 -10.2207,-10.06055 -5.05998,-2.43376 -6.10496,-2.55064 -23.04493,-2.55664 z m -208.54882,6.87891 11.08007,0.13086 c 10.28874,0.12091 11.22829,0.18945 13.12696,0.96094 2.97311,1.20807 5.2393,3.23332 6.5039,5.80859 0.98188,1.99953 1.08594,2.59939 1.08594,6.25781 0,3.64882 -0.10464,4.26194 -1.07422,6.23633 -1.79345,3.65214 -5.35732,6.10229 -9.96289,6.84961 v 0.002 c -1.34864,0.21883 -6.57077,0.39939 -11.60547,0.40039 l -9.15429,0.002 V 437.0293 Z m 64.36718,0.0527 11.08008,0.006 c 12.03504,0.006 14.174,0.26308 17.89844,2.15039 2.84481,1.44159 5.89174,4.65314 7.36328,7.75977 1.13552,2.39715 1.23633,2.92601 1.23633,6.46484 0,3.63193 -0.0802,4.0237 -1.39063,6.76758 -2.38405,4.99195 -7.03058,8.6376 -12.24804,9.61133 -1.14187,0.2131 -6.99512,0.38867 -13.00782,0.38867 h -10.93164 v -16.57422 z m 134.90039,0.002 h 11.00586 c 12.48336,0 14.7853,0.31364 18.53907,2.53125 9.38183,5.54251 10.94672,17.28393 3.36328,25.23437 -2.46173,2.58087 -4.89965,3.99186 -8.27344,4.78711 v -0.002 c -1.90168,0.44826 -5.02785,0.58484 -13.55273,0.58984 l -11.08204,0.006 v -16.57422 z m -50.90429,4.15429 c 0.20691,-0.24337 15.83007,36.07839 15.83007,36.80274 10e-6,0.15539 -7.18089,0.2832 -15.95703,0.2832 h -15.95703 l 5.37891,-12.42969 c 2.95823,-6.83658 6.52421,-15.11849 7.92383,-18.40429 1.39963,-3.2858 2.65169,-6.09956 2.78125,-6.25196 z m -148.55664,29.1836 10.59961,0.0117 c 11.31544,0.0116 13.19644,0.23508 16.68359,1.98242 2.67418,1.33997 4.72678,3.35643 5.94922,5.8457 0.9433,1.92088 1.07226,2.61997 1.07226,5.84375 0,3.22831 -0.12858,3.92185 -1.07812,5.85547 -1.37062,2.79109 -4.57635,5.75225 -7.5,6.92969 -2.12081,0.85412 -2.71927,0.89741 -14.07227,1.01171 l -11.85742,0.11915 0.10156,-13.79883 z" />
  </g>
</svg>
